<?xml version="1.0" encoding="UTF-8" standalone="no"?>
<!DOCTYPE svg PUBLIC "-//W3C//DTD SVG 1.1//EN"
 "http://www.w3.org/Graphics/SVG/1.1/DTD/svg11.dtd">
<!-- Generated by graphviz version 12.1.1 (20240910.0053)
 -->
<!-- Pages: 1 -->
<svg width="5636pt" height="422pt"
 viewBox="0.00 0.00 5636.31 421.50" xmlns="http://www.w3.org/2000/svg" xmlns:xlink="http://www.w3.org/1999/xlink">
<g id="graph0" class="graph" transform="scale(1 1) rotate(0) translate(4 417.5)">
<polygon fill="white" stroke="none" points="-4,4 -4,-417.5 5632.31,-417.5 5632.31,4 -4,4"/>
<!-- Resource0 -->
<g id="node1" class="node">
<title>Resource0</title>
<ellipse fill="none" stroke="black" cx="558.04" cy="-253" rx="558.04" ry="18"/>
<text text-anchor="middle" x="558.04" y="-247.95" font-family="Times,serif" font-size="14.00">urn:pulumi:dev::mybeacon::aws:iam/rolePolicyAttachment:RolePolicyAttachment::eks&#45;policy&#45;arn:aws:iam::aws:policy/AmazonEKSClusterPolicy</text>
</g>
<!-- Resource1 -->
<g id="node2" class="node">
<title>Resource1</title>
<ellipse fill="none" stroke="black" cx="2812.04" cy="-18" rx="255.56" ry="18"/>
<text text-anchor="middle" x="2812.04" y="-12.95" font-family="Times,serif" font-size="14.00">urn:pulumi:dev::mybeacon::pulumi:pulumi:Stack::mybeacon&#45;dev</text>
</g>
<!-- Resource0&#45;&gt;Resource1 -->
<g id="edge1" class="edge">
<title>Resource0&#45;&gt;Resource1</title>
<path fill="none" stroke="#aa6639" d="M348.54,-235.87C246.56,-220.06 156.7,-188.79 212.04,-127 289.01,-41.06 1898.95,-23.51 2546.13,-19.92"/>
<polygon fill="#aa6639" stroke="#aa6639" points="2545.98,-23.42 2555.96,-19.87 2545.94,-16.42 2545.98,-23.42"/>
</g>
<!-- Resource2 -->
<g id="node3" class="node">
<title>Resource2</title>
<ellipse fill="none" stroke="black" cx="3219.04" cy="-199" rx="322.1" ry="18"/>
<text text-anchor="middle" x="3219.04" y="-193.95" font-family="Times,serif" font-size="14.00">urn:pulumi:dev::mybeacon::aws:eks/nodeGroup:NodeGroup::mybeacon&#45;nodegroup</text>
</g>
<!-- Resource2&#45;&gt;Resource1 -->
<g id="edge2" class="edge">
<title>Resource2&#45;&gt;Resource1</title>
<path fill="none" stroke="#aa6639" d="M3111.15,-181.61C3052.56,-168.86 2981.07,-146.73 2926.04,-109 2900.45,-91.45 2907.12,-73.57 2883.04,-54 2877.51,-49.51 2871.31,-45.4 2864.94,-41.7"/>
<polygon fill="#aa6639" stroke="#aa6639" points="2866.64,-38.64 2856.18,-36.96 2863.31,-44.8 2866.64,-38.64"/>
</g>
<!-- Resource3 -->
<g id="node4" class="node">
<title>Resource3</title>
<ellipse fill="none" stroke="black" cx="3207.04" cy="-91" rx="272.45" ry="18"/>
<text text-anchor="middle" x="3207.04" y="-85.95" font-family="Times,serif" font-size="14.00">urn:pulumi:dev::mybeacon::pulumi:providers:kubernetes::k8sprovider</text>
</g>
<!-- Resource2&#45;&gt;Resource3 -->
<g id="edge3" class="edge">
<title>Resource2&#45;&gt;Resource3</title>
<path fill="none" stroke="#246c60" d="M3217.11,-180.97C3215.27,-164.69 3212.46,-139.82 3210.27,-120.52"/>
<polygon fill="#246c60" stroke="#246c60" points="3213.78,-120.39 3209.17,-110.84 3206.82,-121.17 3213.78,-120.39"/>
</g>
<!-- Resource3&#45;&gt;Resource1 -->
<g id="edge12" class="edge">
<title>Resource3&#45;&gt;Resource1</title>
<path fill="none" stroke="#aa6639" d="M3115.92,-73.62C3055.53,-62.77 2976.21,-48.51 2913.76,-37.28"/>
<polygon fill="#aa6639" stroke="#aa6639" points="2914.65,-33.89 2904.19,-35.56 2913.41,-40.78 2914.65,-33.89"/>
</g>
<!-- Resource4 -->
<g id="node5" class="node">
<title>Resource4</title>
<ellipse fill="none" stroke="black" cx="1130.04" cy="-91" rx="278.59" ry="18"/>
<text text-anchor="middle" x="1130.04" y="-85.95" font-family="Times,serif" font-size="14.00">urn:pulumi:dev::mybeacon::kubernetes:core/v1:Service::chatbot&#45;worker</text>
</g>
<!-- Resource4&#45;&gt;Resource1 -->
<g id="edge4" class="edge">
<title>Resource4&#45;&gt;Resource1</title>
<path fill="none" stroke="#aa6639" d="M1326.38,-77.88C1357.05,-76.14 1388.4,-74.45 1418.04,-73 1823.21,-53.2 2294.92,-36.19 2572.66,-26.8"/>
<polygon fill="#aa6639" stroke="#aa6639" points="2572.71,-30.3 2582.59,-26.46 2572.48,-23.3 2572.71,-30.3"/>
</g>
<!-- Resource5 -->
<g id="node6" class="node">
<title>Resource5</title>
<ellipse fill="none" stroke="black" cx="1725.04" cy="-91" rx="298.04" ry="18"/>
<text text-anchor="middle" x="1725.04" y="-85.95" font-family="Times,serif" font-size="14.00">urn:pulumi:dev::mybeacon::kubernetes:apps/v1:Deployment::chatbot&#45;worker</text>
</g>
<!-- Resource5&#45;&gt;Resource1 -->
<g id="edge5" class="edge">
<title>Resource5&#45;&gt;Resource1</title>
<path fill="none" stroke="#aa6639" d="M1845.6,-74.1C1903.42,-66.99 1973.72,-59.08 2037.04,-54 2213.7,-39.84 2413.5,-30.99 2565.98,-25.73"/>
<polygon fill="#aa6639" stroke="#aa6639" points="2565.95,-29.23 2575.83,-25.39 2565.71,-22.24 2565.95,-29.23"/>
</g>
<!-- Resource6 -->
<g id="node7" class="node">
<title>Resource6</title>
<ellipse fill="none" stroke="black" cx="2422.04" cy="-91" rx="343.08" ry="18"/>
<text text-anchor="middle" x="2422.04" y="-85.95" font-family="Times,serif" font-size="14.00">urn:pulumi:dev::mybeacon::kubernetes:networking.k8s.io/v1:Ingress::chatbot&#45;api&#45;ingress</text>
</g>
<!-- Resource6&#45;&gt;Resource1 -->
<g id="edge6" class="edge">
<title>Resource6&#45;&gt;Resource1</title>
<path fill="none" stroke="#aa6639" d="M2513.97,-73.26C2573.23,-62.48 2650.3,-48.45 2711.23,-37.35"/>
<polygon fill="#aa6639" stroke="#aa6639" points="2711.71,-40.82 2720.92,-35.59 2710.45,-33.94 2711.71,-40.82"/>
</g>
<!-- Resource7 -->
<g id="node8" class="node">
<title>Resource7</title>
<ellipse fill="none" stroke="black" cx="1686.04" cy="-145" rx="349.74" ry="18"/>
<text text-anchor="middle" x="1686.04" y="-139.95" font-family="Times,serif" font-size="14.00">urn:pulumi:dev::mybeacon::aws:iam/rolePolicyAttachment:RolePolicyAttachment::ngpa&#45;0</text>
</g>
<!-- Resource7&#45;&gt;Resource1 -->
<g id="edge7" class="edge">
<title>Resource7&#45;&gt;Resource1</title>
<path fill="none" stroke="#aa6639" d="M1440.4,-131.84C1404.07,-130.15 1367.08,-128.48 1332.04,-127 1304.83,-125.85 860.95,-128.61 842.04,-109 830.94,-97.48 830.88,-84.47 842.04,-73 871.39,-42.84 2019.66,-27.14 2549.3,-21.49"/>
<polygon fill="#aa6639" stroke="#aa6639" points="2549.06,-24.99 2559.02,-21.39 2548.99,-17.99 2549.06,-24.99"/>
</g>
<!-- Resource8 -->
<g id="node9" class="node">
<title>Resource8</title>
<ellipse fill="none" stroke="black" cx="2465.04" cy="-145" rx="349.74" ry="18"/>
<text text-anchor="middle" x="2465.04" y="-139.95" font-family="Times,serif" font-size="14.00">urn:pulumi:dev::mybeacon::aws:iam/rolePolicyAttachment:RolePolicyAttachment::ngpa&#45;2</text>
</g>
<!-- Resource8&#45;&gt;Resource1 -->
<g id="edge8" class="edge">
<title>Resource8&#45;&gt;Resource1</title>
<path fill="none" stroke="#aa6639" d="M2704.62,-131.56C2735.2,-126.36 2760.53,-119.1 2774.04,-109 2793.46,-94.48 2803.04,-68.12 2807.71,-47.66"/>
<polygon fill="#aa6639" stroke="#aa6639" points="2811.13,-48.41 2809.64,-37.92 2804.27,-47.05 2811.13,-48.41"/>
</g>
<!-- Resource9 -->
<g id="node10" class="node">
<title>Resource9</title>
<ellipse fill="none" stroke="black" cx="2491.04" cy="-199" rx="349.74" ry="18"/>
<text text-anchor="middle" x="2491.04" y="-193.95" font-family="Times,serif" font-size="14.00">urn:pulumi:dev::mybeacon::aws:iam/rolePolicyAttachment:RolePolicyAttachment::ngpa&#45;1</text>
</g>
<!-- Resource9&#45;&gt;Resource1 -->
<g id="edge9" class="edge">
<title>Resource9&#45;&gt;Resource1</title>
<path fill="none" stroke="#aa6639" d="M2714.99,-184.82C2766.36,-179.56 2808.55,-172.45 2817.04,-163 2845.31,-131.54 2834.06,-78.83 2823.16,-46.66"/>
<polygon fill="#aa6639" stroke="#aa6639" points="2826.58,-45.84 2819.9,-37.62 2820,-48.22 2826.58,-45.84"/>
</g>
<!-- Resource10 -->
<g id="node11" class="node">
<title>Resource10</title>
<ellipse fill="none" stroke="black" cx="1821.04" cy="-199" rx="263.75" ry="18"/>
<text text-anchor="middle" x="1821.04" y="-193.95" font-family="Times,serif" font-size="14.00">urn:pulumi:dev::mybeacon::kubernetes:core/v1:Service::chatbot&#45;api</text>
</g>
<!-- Resource10&#45;&gt;Resource1 -->
<g id="edge11" class="edge">
<title>Resource10&#45;&gt;Resource1</title>
<path fill="none" stroke="#aa6639" d="M1974.99,-184C2002.5,-178.96 2025.94,-172.16 2037.04,-163 2069.9,-135.88 2036.02,-98.65 2070.04,-73 2108.85,-43.74 2358.57,-30.22 2557.74,-24.05"/>
<polygon fill="#aa6639" stroke="#aa6639" points="2557.58,-27.55 2567.47,-23.75 2557.37,-20.55 2557.58,-27.55"/>
</g>
<!-- Resource10&#45;&gt;Resource6 -->
<g id="edge10" class="edge">
<title>Resource10&#45;&gt;Resource6</title>
<path fill="none" stroke="#246c60" d="M1988.79,-184.76C2021.23,-179.66 2049.38,-172.64 2063.04,-163 2077.82,-152.57 2067.05,-137.12 2082.04,-127 2096.5,-117.24 2122.27,-110.11 2153.38,-104.93"/>
<polygon fill="#246c60" stroke="#246c60" points="2153.76,-108.41 2163.1,-103.41 2152.68,-101.49 2153.76,-108.41"/>
<text text-anchor="middle" x="2094.04" y="-139.95" font-family="Times,serif" font-size="14.00">spec</text>
</g>
<!-- Resource11 -->
<g id="node12" class="node">
<title>Resource11</title>
<ellipse fill="none" stroke="black" cx="4777.04" cy="-395.5" rx="260.68" ry="18"/>
<text text-anchor="middle" x="4777.04" y="-390.45" font-family="Times,serif" font-size="14.00">urn:pulumi:dev::mybeacon::pulumi:providers:aws::default_6_47_0</text>
</g>
<!-- Resource12 -->
<g id="node13" class="node">
<title>Resource12</title>
<ellipse fill="none" stroke="black" cx="2491.04" cy="-307" rx="249.93" ry="18"/>
<text text-anchor="middle" x="2491.04" y="-301.95" font-family="Times,serif" font-size="14.00">urn:pulumi:dev::mybeacon::aws:iam/role:Role::node&#45;group&#45;role</text>
</g>
<!-- Resource12&#45;&gt;Resource1 -->
<g id="edge13" class="edge">
<title>Resource12&#45;&gt;Resource1</title>
<path fill="none" stroke="#aa6639" d="M2617.87,-291.13C2709.22,-277.51 2821.26,-253.79 2850.04,-217 2857.83,-207.04 2865.98,-171.28 2847.04,-73 2845.34,-64.16 2844.47,-61.84 2840.04,-54 2838.43,-51.14 2836.59,-48.27 2834.63,-45.48"/>
<polygon fill="#aa6639" stroke="#aa6639" points="2837.48,-43.45 2828.66,-37.58 2831.9,-47.67 2837.48,-43.45"/>
</g>
<!-- Resource12&#45;&gt;Resource2 -->
<g id="edge17" class="edge">
<title>Resource12&#45;&gt;Resource2</title>
<path fill="none" stroke="#246c60" d="M2672.59,-294.33C2739.01,-288.86 2814.62,-281.25 2883.04,-271 2971.43,-257.76 3071.52,-235.68 3139.29,-219.66"/>
<polygon fill="#246c60" stroke="#246c60" points="3139.91,-223.11 3148.83,-217.39 3138.29,-216.3 3139.91,-223.11"/>
<text text-anchor="middle" x="3102.9" y="-247.95" font-family="Times,serif" font-size="14.00">nodeRoleArn</text>
</g>
<!-- Resource12&#45;&gt;Resource7 -->
<g id="edge14" class="edge">
<title>Resource12&#45;&gt;Resource7</title>
<path fill="none" stroke="#246c60" d="M2258.91,-300.11C1995.19,-290.96 1595.06,-268.67 1548.04,-217 1537.27,-205.17 1538.22,-193.63 1548.04,-181 1552.52,-175.25 1562.26,-170.29 1574.6,-166.06"/>
<polygon fill="#246c60" stroke="#246c60" points="1575.55,-169.43 1584.07,-163.13 1573.48,-162.74 1575.55,-169.43"/>
<text text-anchor="middle" x="1793.47" y="-247.95" font-family="Times,serif" font-size="14.00">role</text>
</g>
<!-- Resource12&#45;&gt;Resource8 -->
<g id="edge15" class="edge">
<title>Resource12&#45;&gt;Resource8</title>
<path fill="none" stroke="#246c60" d="M2364.21,-291.13C2272.86,-277.51 2160.83,-253.79 2132.04,-217 2122.18,-204.4 2121.34,-192.89 2132.04,-181 2140.07,-172.08 2177.56,-165.28 2224.67,-160.15"/>
<polygon fill="#246c60" stroke="#246c60" points="2224.76,-163.66 2234.34,-159.14 2224.03,-156.7 2224.76,-163.66"/>
<text text-anchor="middle" x="2262.7" y="-247.95" font-family="Times,serif" font-size="14.00">role</text>
</g>
<!-- Resource12&#45;&gt;Resource9 -->
<g id="edge16" class="edge">
<title>Resource12&#45;&gt;Resource9</title>
<path fill="none" stroke="#246c60" d="M2491.04,-288.97C2491.04,-272.76 2491.04,-248.06 2491.04,-228.79"/>
<polygon fill="#246c60" stroke="#246c60" points="2494.54,-228.85 2491.04,-218.85 2487.54,-228.85 2494.54,-228.85"/>
<text text-anchor="middle" x="2501.54" y="-247.95" font-family="Times,serif" font-size="14.00">role</text>
</g>
<!-- Resource13 -->
<g id="node14" class="node">
<title>Resource13</title>
<ellipse fill="none" stroke="black" cx="772.04" cy="-145" rx="559.07" ry="18"/>
<text text-anchor="middle" x="772.04" y="-139.95" font-family="Times,serif" font-size="14.00">urn:pulumi:dev::mybeacon::aws:iam/rolePolicyAttachment:RolePolicyAttachment::eks&#45;policy&#45;arn:aws:iam::aws:policy/AmazonEKSServicePolicy</text>
</g>
<!-- Resource13&#45;&gt;Resource1 -->
<g id="edge18" class="edge">
<title>Resource13&#45;&gt;Resource1</title>
<path fill="none" stroke="#aa6639" d="M780.95,-126.66C790.6,-109.84 807.66,-85.14 830.04,-73 898.81,-35.7 926.97,-58.98 1005.04,-54 1296.9,-35.37 2121.83,-25.31 2548.75,-21.22"/>
<polygon fill="#aa6639" stroke="#aa6639" points="2548.53,-24.72 2558.5,-21.13 2548.47,-17.72 2548.53,-24.72"/>
</g>
<!-- Resource14 -->
<g id="node15" class="node">
<title>Resource14</title>
<ellipse fill="none" stroke="black" cx="5342.04" cy="-395.5" rx="286.27" ry="18"/>
<text text-anchor="middle" x="5342.04" y="-390.45" font-family="Times,serif" font-size="14.00">urn:pulumi:dev::mybeacon::pulumi:providers:kubernetes::default_3_30_2</text>
</g>
<!-- Resource15 -->
<g id="node16" class="node">
<title>Resource15</title>
<ellipse fill="none" stroke="black" cx="3781.04" cy="-91" rx="283.2" ry="18"/>
<text text-anchor="middle" x="3781.04" y="-85.95" font-family="Times,serif" font-size="14.00">urn:pulumi:dev::mybeacon::kubernetes:apps/v1:Deployment::chatbot&#45;api</text>
</g>
<!-- Resource15&#45;&gt;Resource1 -->
<g id="edge19" class="edge">
<title>Resource15&#45;&gt;Resource1</title>
<path fill="none" stroke="#aa6639" d="M3600.2,-76.75C3427.77,-64.12 3169.38,-45.18 2995.95,-32.48"/>
<polygon fill="#aa6639" stroke="#aa6639" points="2996.39,-29 2986.16,-31.76 2995.88,-35.98 2996.39,-29"/>
</g>
<!-- Resource16 -->
<g id="node17" class="node">
<title>Resource16</title>
<ellipse fill="none" stroke="black" cx="1886.04" cy="-395.5" rx="219.74" ry="18"/>
<text text-anchor="middle" x="1886.04" y="-390.45" font-family="Times,serif" font-size="14.00">urn:pulumi:dev::mybeacon::aws:iam/role:Role::eks&#45;role</text>
</g>
<!-- Resource16&#45;&gt;Resource0 -->
<g id="edge23" class="edge">
<title>Resource16&#45;&gt;Resource0</title>
<path fill="none" stroke="#246c60" d="M1687.55,-387.56C1568.09,-382.28 1413.1,-373.47 1276.04,-359.5 1059.12,-337.38 807.35,-296.96 666.99,-273.08"/>
<polygon fill="#246c60" stroke="#246c60" points="667.77,-269.66 657.33,-271.43 666.59,-276.56 667.77,-269.66"/>
<text text-anchor="middle" x="1286.54" y="-346.2" font-family="Times,serif" font-size="14.00">role</text>
</g>
<!-- Resource16&#45;&gt;Resource1 -->
<g id="edge21" class="edge">
<title>Resource16&#45;&gt;Resource1</title>
<path fill="none" stroke="#aa6639" d="M2101.46,-391.75C2663.3,-383.86 4130.04,-358.43 4130.04,-308 4130.04,-308 4130.04,-308 4130.04,-90 4130.04,-60.72 4076.93,-62.22 4006.04,-54 3832.66,-33.9 3371.02,-25.1 3075.2,-21.43"/>
<polygon fill="#aa6639" stroke="#aa6639" points="3075.42,-17.93 3065.38,-21.31 3075.34,-24.93 3075.42,-17.93"/>
</g>
<!-- Resource16&#45;&gt;Resource13 -->
<g id="edge20" class="edge">
<title>Resource16&#45;&gt;Resource13</title>
<path fill="none" stroke="#246c60" d="M1812.52,-378.1C1615.14,-334.07 1074.16,-213.39 860.52,-165.74"/>
<polygon fill="#246c60" stroke="#246c60" points="861.37,-162.34 850.84,-163.58 859.84,-169.17 861.37,-162.34"/>
<text text-anchor="middle" x="1575.74" y="-301.95" font-family="Times,serif" font-size="14.00">role</text>
</g>
<!-- Resource17 -->
<g id="node18" class="node">
<title>Resource17</title>
<ellipse fill="none" stroke="black" cx="3577.04" cy="-307" rx="273.48" ry="18"/>
<text text-anchor="middle" x="3577.04" y="-301.95" font-family="Times,serif" font-size="14.00">urn:pulumi:dev::mybeacon::aws:eks/cluster:Cluster::mybeacon&#45;cluster</text>
</g>
<!-- Resource16&#45;&gt;Resource17 -->
<g id="edge22" class="edge">
<title>Resource16&#45;&gt;Resource17</title>
<path fill="none" stroke="#246c60" d="M2068.61,-385.16C2381.05,-369.18 3017.15,-336.64 3354.84,-319.37"/>
<polygon fill="#246c60" stroke="#246c60" points="3354.91,-322.87 3364.72,-318.86 3354.56,-315.88 3354.91,-322.87"/>
<text text-anchor="middle" x="2904" y="-346.2" font-family="Times,serif" font-size="14.00">roleArn</text>
</g>
<!-- Resource17&#45;&gt;Resource1 -->
<g id="edge26" class="edge">
<title>Resource17&#45;&gt;Resource1</title>
<path fill="none" stroke="#aa6639" d="M3704.42,-290.63C3888.28,-263.76 4193.49,-198.72 4073.04,-73 4039.1,-37.58 3435.45,-25.29 3075.85,-21.1"/>
<polygon fill="#aa6639" stroke="#aa6639" points="3076.04,-17.6 3066,-20.99 3075.96,-24.6 3076.04,-17.6"/>
</g>
<!-- Resource17&#45;&gt;Resource2 -->
<g id="edge27" class="edge">
<title>Resource17&#45;&gt;Resource2</title>
<path fill="none" stroke="#246c60" d="M3519.52,-288.97C3456.43,-270.29 3355.2,-240.32 3287.92,-220.39"/>
<polygon fill="#246c60" stroke="#246c60" points="3289.04,-217.08 3278.46,-217.59 3287.06,-223.79 3289.04,-217.08"/>
<text text-anchor="middle" x="3485.53" y="-247.95" font-family="Times,serif" font-size="14.00">clusterName</text>
</g>
<!-- Resource17&#45;&gt;Resource3 -->
<g id="edge28" class="edge">
<title>Resource17&#45;&gt;Resource3</title>
<path fill="none" stroke="#246c60" d="M3578.55,-288.89C3579.9,-262.15 3578.33,-210.47 3550.04,-181 3519.33,-149 3414.42,-124.82 3328.62,-109.79"/>
<polygon fill="#246c60" stroke="#246c60" points="3329.4,-106.37 3318.95,-108.13 3328.21,-113.27 3329.4,-106.37"/>
<text text-anchor="middle" x="3600.94" y="-193.95" font-family="Times,serif" font-size="14.00">kubeconfig</text>
</g>
<!-- Resource18 -->
<g id="node19" class="node">
<title>Resource18</title>
<ellipse fill="none" stroke="black" cx="4199.04" cy="-395.5" rx="299.58" ry="18"/>
<text text-anchor="middle" x="4199.04" y="-390.45" font-family="Times,serif" font-size="14.00">urn:pulumi:dev::mybeacon::aws:ec2/securityGroup:SecurityGroup::cluster&#45;sg</text>
</g>
<!-- Resource18&#45;&gt;Resource1 -->
<g id="edge24" class="edge">
<title>Resource18&#45;&gt;Resource1</title>
<path fill="none" stroke="#aa6639" d="M4211.03,-377.15C4221.5,-360.29 4235.04,-333.54 4235.04,-308 4235.04,-308 4235.04,-308 4235.04,-90 4235.04,-32.76 3490.77,-21.18 3078.75,-19.15"/>
<polygon fill="#aa6639" stroke="#aa6639" points="3078.8,-15.65 3068.78,-19.1 3078.76,-22.65 3078.8,-15.65"/>
</g>
<!-- Resource18&#45;&gt;Resource17 -->
<g id="edge25" class="edge">
<title>Resource18&#45;&gt;Resource17</title>
<path fill="none" stroke="#246c60" d="M4083.51,-378.43C3975.07,-363.35 3813.32,-340.86 3701.94,-325.37"/>
<polygon fill="#246c60" stroke="#246c60" points="3702.53,-321.92 3692.15,-324.01 3701.57,-328.85 3702.53,-321.92"/>
<text text-anchor="middle" x="3972.25" y="-346.2" font-family="Times,serif" font-size="14.00">vpcConfig</text>
</g>
</g>
</svg>
